<svg width="50" height="50" viewBox="0 0 50 50" fill="none" xmlns="http://www.w3.org/2000/svg">
<path d="M24.9999 9.15527e-05C38.7849 9.15527e-05 49.9999 11.2151 49.9999 25.0001C49.9999 38.7851 38.7849 50.0001 24.9999 50.0001C11.2149 50.0001 -9.15527e-05 38.7851 -9.15527e-05 25.0001C-9.15527e-05 11.2151 11.2149 9.15527e-05 24.9999 9.15527e-05ZM24.9999 45.0001C36.0274 45.0001 44.9999 36.0276 44.9999 25.0001C44.9999 13.9726 36.0274 5.00009 24.9999 5.00009C13.9724 5.00009 4.99991 13.9726 4.99991 25.0001C4.99991 36.0276 13.9724 45.0001 24.9999 45.0001Z" fill="white"/>
<path d="M31.7676 14.2674L21.0351 24.9999L31.7676 35.7324L28.2326 39.2674L13.9651 24.9999L28.2326 10.7324L31.7676 14.2674Z" fill="white"/>
</svg>
