<svg width="50" height="50" viewBox="0 0 50 50" fill="none" xmlns="http://www.w3.org/2000/svg">
<path d="M25.0001 9.15527e-05C11.2151 9.15527e-05 0.00012207 11.2151 0.00012207 25.0001C0.00012207 38.7851 11.2151 50.0001 25.0001 50.0001C38.7851 50.0001 50.0001 38.7851 50.0001 25.0001C50.0001 11.2151 38.7851 9.15527e-05 25.0001 9.15527e-05ZM25.0001 45.0001C13.9726 45.0001 5.00012 36.0276 5.00012 25.0001C5.00012 13.9726 13.9726 5.00009 25.0001 5.00009C36.0276 5.00009 45.0001 13.9726 45.0001 25.0001C45.0001 36.0276 36.0276 45.0001 25.0001 45.0001Z" fill="white"/>
<path d="M18.2324 14.2674L28.9649 24.9999L18.2324 35.7324L21.7674 39.2674L36.0349 24.9999L21.7674 10.7324L18.2324 14.2674Z" fill="white"/>
</svg>
